{"title":"Angry Birds 2016 1080p Dual x264-PEISR","uid":15480539,"size":6668592000,"categoryP":"video","categoryS":"hd___movies","magnet":"?xt=urn:btih:fda44f2587933a737a09ee17cd7e89e9b34d3c42&amp;dn=Angry+Birds+2016+1080p+Dual+x264-PEISR&amp;tr=udp%3A%2F%2Ftracker.leechers-paradise.org%3A6969&amp;tr=udp%3A%2F%2Fzer0day.ch%3A1337&amp;tr=udp%3A%2F%2Fopen.demonii.com%3A1337&amp;tr=udp%3A%2F%2Ftracker.coppersurfer.tk%3A6969&amp;tr=udp%3A%2F%2Fexodus.desync.com%3A6969","seeders":2,"leechers":2,"uploader":"VitorPIRA","files":2,"time":1470247490,"description":"http://extraimago.com/images/2016/08/03/6c70b0c460a1eeedc18d99251df2a1b2.jpg\r\n\r\n \nhttp://www.imdb.com/title/tt1985949/\r\n\r\nUma pequena comunidade em um paraíso de aves que não voam, há muito tempo vivem pacificamente, com exceção de Red , um pássaro com uma raiva constante. Os pássaros se surpreenderam com a aparição inesperada de porcos liderados por Leonard em sua ilha. O bando se juntou para investigar os porcos e suas intenções. \r\n\r\nVideo\r\nID                                       : 3\r\nFormat                                   : AVC\r\nFormat/Info                              : Advanced Video Codec\r\nFormat profile                           :   \r\nFormat settings, CABAC                   : Yes\r\nFormat settings, ReFrames                : 4 frames\r\nCodec ID                                 : V_MPEG4/ISO/AVC\r\nDuration                                 : 1 h 37 min\r\nBit rate                                 : 7 069 kb/s\r\nWidth                                    : 1 920 pixels\r\nHeight                                   : 1 036 pixels\r\nDisplay aspect ratio                     : 1.85:1\r\nFrame rate mode                          : Constant\r\nFrame rate                               : 23.976 (24000/1001) FPS\r\nColor space                              : YUV\r\nChroma subsampling                       : 4:2:0\r\nBit depth                                : 8 bits\r\nScan type                                : Progressive\r\nBits/(Pixel*Frame)                       : 0.148\r\nStream size                              : 4.80 GiB (77%)\r\nDefault                                  : Yes\r\nForced                                   : No\r\n\r\nAudio #1\r\nID                                       : 1\r\nFormat                                   : AC-3\r\nFormat/Info                              : Audio Coding 3\r\nMode extension                           : CM (complete main)\r\nFormat settings, Endianness              : Big\r\nCodec ID                                 : A_AC3\r\nDuration                                 : 1 h 37 min\r\nBit rate mode                            : Constant\r\nBit rate                                 : 384 kb/s\r\nChannel(s)                               : 6 channels\r\nChannel positions                        : Front: L C R, Side: L R, LFE\r\nSampling rate                            : 48.0 kHz\r\nFrame rate                               : 31.250 FPS (1536 spf)\r\nCompression mode                         : Lossy\r\nDelay relative to video                  : -83 ms\r\nStream size                              : 267 MiB (4%)\r\nTitle                                    : Português 5.1\r\nLanguage                                 : Portuguese\r\nDefault                                  : No\r\nForced                                   : Yes\r\n\r\nAudio #2\r\nID                                       : 4\r\nFormat                                   : DTS\r\nFormat/Info                              : Digital Theater Systems\r\nMode                                     : 16\r\nFormat settings, Endianness              : Big\r\nCodec ID                                 : A_DTS\r\nDuration                                 : 1 h 37 min\r\nBit rate mode                            : Constant\r\nBit rate                                 : 1 509 kb/s\r\nChannel(s)                               : 6 channels\r\nChannel positions                        : Front: L C R, Side: L R, LFE\r\nSampling rate                            : 48.0 kHz\r\nFrame rate                               : 93.750 FPS (512 spf)\r\nBit depth                                : 24 bits\r\nCompression mode                         : Lossy\r\nStream size                              : 1.02 GiB (17%)\r\nTitle                                    : Inglês 5.1\r\nLanguage                                 : English\r\nDefault                                  : Yes\r\nForced                                   : No\r\n\r\nText\r\nID                                       : 2\r\nFormat                                   : UTF-8\r\nCodec ID                                 : S_TEXT/UTF8\r\nCodec ID/Info                            : UTF-8 Plain Text\r\nTitle                                    : Português\r\nLanguage                                 : Portuguese\r\nDefault                                  : Yes\r\nForced                                   : No\r\n\r\nMenu\r\n00:00:00.000                             : :00:00:00.000\r\n00:07:05.300                             : :00:07:05.091\r\n00:13:38.193                             : :00:13:38.109\r\n00:20:22.723                             : :00:20:22.638\r\n00:25:38.706                             : :00:25:38.620\r\n00:32:57.478                             : :00:32:57.392\r\n00:38:34.899                             : :00:38:34.812\r\n00:41:36.414                             : :00:41:36.327\r\n00:47:13.043                             : :00:47:12.955\r\n00:52:04.376                             : :00:52:04.288\r\n00:56:07.786                             : :00:56:07.698\r\n00:59:08.801                             : :00:59:08.712\r\n01:03:43.534                             : :01:03:43.319\r\n01:11:45.891                             : :01:11:45.801\r\n01:18:55.613                             : :01:18:55.522\r\n01:23:54.913                             : :01:23:54.821\r\n\r\n \nhttp://extraimago.com/images/2016/08/03/a4ca8c29ccf7d5d7e0f1298332296503.jpg","torrent":{"xt":"urn:btih:fda44f2587933a737a09ee17cd7e89e9b34d3c42","amp;dn":"Angry+Birds+2016+1080p+Dual+x264-PEISR","amp;tr":["udp%3A%2F%2Ftracker.leechers-paradise.org%3A6969","udp%3A%2F%2Fzer0day.ch%3A1337","udp%3A%2F%2Fopen.demonii.com%3A1337","udp%3A%2F%2Ftracker.coppersurfer.tk%3A6969","udp%3A%2F%2Fexodus.desync.com%3A6969"],"infoHash":"fda44f2587933a737a09ee17cd7e89e9b34d3c42","infoHashBuffer":{"type":"Buffer","data":[253,164,79,37,135,147,58,115,122,9,238,23,205,126,137,233,179,77,60,66]},"announce":[],"urlList":[]}}